Tracklista DVD:

1. Fame
2. Adubi
3. Big Black Hole
4. Vendetta
5. Pan Nikt
6. To Co Ma Nadejść
7. Again
8. Solą W Oku
9. Tron
10. Skoczny
11. Nóż
12. Wojtek
13. Na Luzie
14. 140
15. Tylko
Bonusy


Dane techniczne:

General
Complete name : Illusion - Live (2012) [DVDRip] [DivX].avi
Format : AVI
Format/Info : Audio Video Interleave
Format profile : OpenDML
File size : 1.06 GiB
Duration : 2h 48mn
Overall bit rate : 900 Kbps
Writing application : Lavf51.12.1

Video
Format : xvid
Codec ID : xvid
Duration : 2h 48mn
Bit rate : 770 Kbps
Width : 720 pixels
Height : 480 pixels
Display aspect ratio : 1.500
Frame rate : 23.976 fps
Standard : NTSC
Resolution : 24 bits
Bits/(Pixel*Frame) : 0.093
Stream size : 929 MiB (86%)

Audio
ID : 1
Format : MPEG Audio
Format version : Version 1
Format profile : Layer 3
Format_Settings_Mode : Joint stereo
Codec ID : 55
Codec ID/Hint : MP3
Duration : 1h 4mn
Bit rate mode : Constant
Bit rate : 320 Kbps
Channel(s) : 2 channels
Sampling rate : 44.1 KHz
Resolution : 16 bits
Stream size : 149 MiB (14%)
Alignment : Aligned on interleaves
Interleave, duration : 26 ms (0.63 video frame)
Writing library : LAME3.97UUUUUUUí
